<svg id="Layer_1" data-name="Layer 1" xmlns="http://www.w3.org/2000/svg" viewBox="0 0 800 350">
  <defs>
    <style>
      .cls-1 {
        fill: #faab4f;
        stroke-width: 0.25px;
      }

      .cls-1, .cls-2, .cls-3, .cls-4, .cls-5, .cls-6 {
        stroke: #010101;
        stroke-miterlimit: 10;
      }

      .cls-2 {
        fill: #3e415c;
      }

      .cls-2, .cls-3, .cls-4, .cls-5 {
        stroke-width: 3px;
      }

      .cls-3 {
        fill: #c54536;
      }

      .cls-4 {
        fill: #f79226;
      }

      .cls-5 {
        fill: #f3f1df;
      }

      .cls-6 {
        fill: #fff;
        stroke-width: 2px;
      }
    </style>
  </defs>
  <rect class="cls-1" x="1.02" y="0.01" width="798.98" height="349.99"/>
  <g>
    <path class="cls-2" d="M164,152.37h1c1.78-42.12,4.74-83.65,23.33-83.65,11.67,0,19.38,4,24.92,12.85-10.09,11.47-16.22,40.94-21,72-3,19.57-7.72,36.58-9.89,41.13-3.16,6.72-12.66,10.68-38,10.68-12.06-39.55-18.79-64.87-24.32-80.88h-1c-4,42.32-10.29,80.88-28.87,80.88-14,0-20.37-6.33-26.11-16,16-16,27.29-76.73,29.86-95.32-2.17-1.38-6.32-3-13-4,4-14.24,14-21.36,32.24-21.36C135.75,68.72,146.43,84.14,164,152.37Z"/>
    <path class="cls-2" d="M284.46,111.83c5.14-3.36,13.25-3.76,20.17-3.76a39,39,0,0,1,6.72.4c-4.94,21-7.91,46.67-7.91,63.67,0,8.71,2.18,16.42,7.12,22.35a39.29,39.29,0,0,1-27.69,10.88c-8.5,0-10.87-3.56-10.87-11.27a76.55,76.55,0,0,1,2.17-15.23l-1.78-.2c-8.9,22.35-19,27.49-31.64,27.49-11.86,0-33.42-6.92-33.42-40.54,0-46.67,32.63-62.29,52.61-62.29C271,103.33,277.93,106.49,284.46,111.83ZM245.7,165.42c0,8.9,1.38,14.83,2.37,15.82,4.75,0,10.88-5.34,16.61-19.38,3.56-8.7,5.93-19.58,8.11-32.83a19.87,19.87,0,0,0-11.27-3C253.21,126.07,245.7,146.83,245.7,165.42Z"/>
    <path class="cls-2" d="M413.39,119.94a32.19,32.19,0,0,1-.4,4.15h.79c5.14-12.26,17.21-20.76,28.68-20.76,12.65,0,22.54,6.52,26.3,17.2-3.17,9.3-11.08,33.82-11.08,55.17,0,4.55,2.57,12.26,7.91,14.24,0,0-9.49,16.22-27.68,16.22-14,0-19-6.53-19-19.18,0-12.07,5.54-33.62,11.08-53.79l-1.58-.6c-7.92,1.19-13.25,8.51-17,19.78-5.54,15.82-5.74,41.53-5.74,52.4a161.19,161.19,0,0,1-19.77,1.39c-12.46,0-17.21-3.76-17.21-14.83,0-12.07,7.91-37.18,13.06-58.34l-1.39-.59c-7.91.19-14.63,8.5-17.8,20.76C358,170.36,357,181,357,204.77a149.16,149.16,0,0,1-18.59,1.39c-15,0-19.38-8.11-19.38-17.6,0-14.64,8.3-28.28,8.3-41.73,0-5.14-2.17-18.78-8.5-27.29,5.34-11.47,18.39-16.21,30.26-16.21,7.11,0,12.85,3.36,12.85,12.06a38.76,38.76,0,0,1-2.18,12.06h1c9.5-20,20.77-24.12,30.26-24.12C398.75,103.33,413.39,103.72,413.39,119.94Z"/>
    <path class="cls-2" d="M518.78,206.16c-25.31,0-45.08-12.86-45.08-45.88,0-45.48,34.21-56.95,56.36-56.95,16.81,0,35.39,4.15,35.39,24.52,0,25.51-31.83,33-53,36.78.39,7.51,2.57,15.42,6.13,18.79,12.65-4.75,25.51-17.8,25.51-17.8s11.66,2.77,11.66,17.2C555.76,197.06,537,206.16,518.78,206.16Zm-6.72-57.75c11.87-1.58,18.39-7.51,18.39-16.41a9.91,9.91,0,0,0-4.15-8.7C521.16,124.88,513.25,129.83,512.06,148.41Z"/>
    <path class="cls-2" d="M631.11,133.58c-14.44,5.34-19.78,37.18-19.78,62.1,0,1.58,0,3.36.4,9.09a147.48,147.48,0,0,1-18.2,1.39c-12.26,0-21-3.76-21-16,0-17.8,8.31-28.67,8.31-43.9,0-6.53-2.58-18.59-8.51-26.5,3.36-8.7,15.82-16.41,29.86-16.41,7.91,0,13.06,3.36,13.06,13.84a82.12,82.12,0,0,1-.8,10.08h1.19c6.13-18.39,16.22-23.92,28.48-23.92,13.64,0,22.74,9.49,22.74,23.13,0,12.86-6.92,28.68-32.23,28.68C634.67,148.81,634.47,138.53,631.11,133.58Z"/>
    <path class="cls-2" d="M730.57,133.58c-14.44,5.34-19.78,37.18-19.78,62.1,0,1.58,0,3.36.4,9.09A147.3,147.3,0,0,1,693,206.16c-12.26,0-21-3.76-21-16,0-17.8,8.3-28.67,8.3-43.9,0-6.53-2.57-18.59-8.5-26.5,3.36-8.7,15.82-16.41,29.86-16.41,7.91,0,13,3.36,13,13.84a84.16,84.16,0,0,1-.79,10.08h1.19c6.13-18.39,16.21-23.92,28.47-23.92,13.65,0,22.74,9.49,22.74,23.13,0,12.86-6.92,28.68-32.23,28.68C734.13,148.81,733.93,138.53,730.57,133.58Z"/>
  </g>
  <g>
    <path class="cls-3" d="M155.93,145.35h1c1.78-42.12,4.75-83.65,23.33-83.65,11.67,0,19.38,4,24.92,12.85-10.08,11.47-16.21,40.94-21,72-3,19.57-7.71,36.58-9.89,41.13-3.16,6.72-12.65,10.68-38,10.68-12.06-39.55-18.78-64.87-24.32-80.88h-1c-4,42.31-10.28,80.88-28.87,80.88-14,0-20.37-6.33-26.11-16,16-16,27.29-76.73,29.87-95.32-2.18-1.38-6.33-3-13.06-4,4-14.24,14-21.36,32.24-21.36C127.65,61.7,138.33,77.12,155.93,145.35Z"/>
    <path class="cls-3" d="M276.36,104.81c5.14-3.36,13.25-3.76,20.17-3.76a39,39,0,0,1,6.72.4c-4.94,21-7.91,46.67-7.91,63.67,0,8.71,2.18,16.42,7.12,22.35a39.28,39.28,0,0,1-27.68,10.88c-8.51,0-10.88-3.56-10.88-11.28a75.9,75.9,0,0,1,2.18-15.22l-1.78-.2c-8.9,22.35-19,27.49-31.64,27.49-11.87,0-33.43-6.92-33.43-40.54,0-46.67,32.63-62.29,52.61-62.29C262.91,96.31,269.83,99.47,276.36,104.81ZM237.6,158.4c0,8.9,1.38,14.83,2.37,15.82,4.75,0,10.88-5.34,16.61-19.38,3.56-8.7,5.94-19.58,8.11-32.83a19.87,19.87,0,0,0-11.27-3C245.11,119.05,237.6,139.81,237.6,158.4Z"/>
    <path class="cls-3" d="M405.29,112.92a32.19,32.19,0,0,1-.4,4.15h.79c5.15-12.26,17.21-20.76,28.68-20.76,12.65,0,22.54,6.52,26.3,17.2-3.16,9.29-11.08,33.82-11.08,55.17,0,4.55,2.58,12.26,7.92,14.24,0,0-9.5,16.22-27.69,16.22-14,0-19-6.53-19-19.18,0-12.07,5.53-33.62,11.07-53.79l-1.58-.6c-7.91,1.19-13.25,8.51-17,19.78-5.54,15.82-5.73,41.53-5.73,52.4a161.43,161.43,0,0,1-19.78,1.39c-12.46,0-17.2-3.76-17.2-14.83,0-12.07,7.91-37.18,13-58.34l-1.39-.59c-7.91.19-14.63,8.5-17.79,20.76-4.55,17.2-5.54,27.88-5.54,51.61a149.16,149.16,0,0,1-18.59,1.39c-15,0-19.38-8.11-19.38-17.6,0-14.64,8.31-28.28,8.31-41.73,0-5.14-2.18-18.79-8.51-27.29,5.34-11.47,18.39-16.21,30.26-16.21,7.12,0,12.85,3.36,12.85,12.06a39,39,0,0,1-2.17,12.06h1c9.49-20,20.76-24.12,30.25-24.12C390.65,96.31,405.29,96.7,405.29,112.92Z"/>
    <path class="cls-3" d="M510.69,199.14c-25.32,0-45.09-12.86-45.09-45.88,0-45.48,34.21-56.95,56.36-56.95,16.81,0,35.4,4.15,35.4,24.52,0,25.51-31.84,33-53,36.78.39,7.51,2.57,15.42,6.13,18.79,12.65-4.75,25.51-17.8,25.51-17.8s11.67,2.77,11.67,17.2C547.67,190,528.88,199.14,510.69,199.14ZM504,141.39c11.87-1.58,18.39-7.51,18.39-16.41a9.91,9.91,0,0,0-4.15-8.7C513.06,117.86,505.15,122.8,504,141.39Z"/>
    <path class="cls-3" d="M623,126.56c-14.44,5.34-19.78,37.18-19.78,62.1,0,1.58,0,3.36.4,9.09a147.48,147.48,0,0,1-18.2,1.39c-12.26,0-21-3.76-21-16,0-17.8,8.31-28.67,8.31-43.9,0-6.53-2.57-18.59-8.5-26.5,3.36-8.7,15.82-16.41,29.86-16.41,7.91,0,13.05,3.36,13.05,13.84a84.32,84.32,0,0,1-.79,10.08h1.18c6.13-18.39,16.22-23.92,28.48-23.92,13.65,0,22.74,9.49,22.74,23.13,0,12.86-6.92,28.68-32.23,28.68C626.57,141.79,626.37,131.51,623,126.56Z"/>
    <path class="cls-3" d="M722.47,126.56c-14.43,5.34-19.77,37.18-19.77,62.1,0,1.58,0,3.36.39,9.09a147.3,147.3,0,0,1-18.19,1.39c-12.26,0-21-3.76-21-16,0-17.8,8.3-28.67,8.3-43.9,0-6.53-2.57-18.59-8.5-26.5,3.36-8.7,15.82-16.41,29.86-16.41,7.91,0,13,3.36,13,13.84a82.3,82.3,0,0,1-.79,10.08h1.19c6.13-18.39,16.21-23.92,28.47-23.92,13.65,0,22.75,9.49,22.75,23.13,0,12.86-6.93,28.68-32.24,28.68C726,141.79,725.83,131.51,722.47,126.56Z"/>
  </g>
  <g>
    <path class="cls-4" d="M146.76,136.17h1c1.78-42.12,4.75-83.65,23.33-83.65,11.67,0,19.38,4,24.92,12.86-10.08,11.47-16.21,40.93-21,72-3,19.58-7.71,36.58-9.89,41.13-3.16,6.73-12.65,10.68-38,10.68-12.06-39.55-18.78-64.86-24.32-80.88h-1c-4,42.32-10.28,80.88-28.87,80.88-14,0-20.37-6.33-26.11-16,16-16,27.29-76.72,29.87-95.31-2.18-1.39-6.33-3-13.06-4,4-14.24,14-21.36,32.24-21.36C118.48,52.52,129.16,68,146.76,136.17Z"/>
    <path class="cls-4" d="M267.19,95.63c5.14-3.36,13.25-3.75,20.17-3.75a40,40,0,0,1,6.72.39c-4.94,21-7.91,46.67-7.91,63.68,0,8.7,2.18,16.41,7.12,22.34a39.28,39.28,0,0,1-27.68,10.88c-8.51,0-10.88-3.56-10.88-11.27a76,76,0,0,1,2.18-15.23l-1.78-.19c-8.9,22.34-19,27.48-31.65,27.48-11.86,0-33.42-6.92-33.42-40.54,0-46.67,32.63-62.29,52.61-62.29C253.74,87.13,260.66,90.29,267.19,95.63Zm-38.76,53.6c0,8.89,1.38,14.83,2.37,15.82,4.75,0,10.88-5.34,16.61-19.38,3.56-8.71,5.94-19.58,8.11-32.83a19.77,19.77,0,0,0-11.27-3C235.94,109.87,228.43,130.64,228.43,149.23Z"/>
    <path class="cls-4" d="M396.12,103.74a32.34,32.34,0,0,1-.4,4.16h.79c5.14-12.27,17.21-20.77,28.68-20.77,12.65,0,22.54,6.53,26.3,17.21-3.17,9.29-11.08,33.81-11.08,55.17,0,4.55,2.58,12.26,7.91,14.24,0,0-9.49,16.21-27.68,16.21-14,0-19-6.52-19-19.18,0-12.06,5.54-33.62,11.08-53.79l-1.58-.59c-7.91,1.18-13.25,8.5-17,19.77-5.54,15.82-5.73,41.53-5.73,52.41A160.79,160.79,0,0,1,368.63,190c-12.46,0-17.2-3.75-17.2-14.83,0-12.06,7.91-37.18,13.05-58.34l-1.39-.59c-7.91.2-14.63,8.5-17.8,20.76-4.54,17.21-5.53,27.89-5.53,51.62A148.47,148.47,0,0,1,321.17,190c-15,0-19.38-8.1-19.38-17.6,0-14.63,8.3-28.28,8.3-41.72,0-5.14-2.17-18.79-8.5-27.29,5.34-11.47,18.39-16.22,30.26-16.22,7.12,0,12.85,3.36,12.85,12.06a39.05,39.05,0,0,1-2.17,12.07h1c9.49-20,20.76-24.13,30.25-24.13C381.48,87.13,396.12,87.53,396.12,103.74Z"/>
    <path class="cls-4" d="M501.52,190c-25.32,0-45.09-12.85-45.09-45.88,0-45.48,34.21-57,56.36-57,16.81,0,35.4,4.15,35.4,24.52,0,25.51-31.84,33-53,36.78.39,7.52,2.57,15.43,6.13,18.79,12.65-4.74,25.51-17.8,25.51-17.8s11.67,2.77,11.67,17.21C538.5,180.87,519.71,190,501.52,190Zm-6.73-57.74c11.87-1.58,18.39-7.52,18.39-16.41A9.93,9.93,0,0,0,509,107.1C503.89,108.69,496,113.63,494.79,132.22Z"/>
    <path class="cls-4" d="M613.84,117.39c-14.44,5.34-19.78,37.17-19.78,62.09,0,1.58,0,3.36.4,9.1a149.66,149.66,0,0,1-18.2,1.38c-12.26,0-21-3.75-21-16,0-17.79,8.31-28.67,8.31-43.9,0-6.52-2.57-18.59-8.51-26.5,3.37-8.7,15.82-16.41,29.86-16.41,7.92,0,13.06,3.36,13.06,13.84a84.49,84.49,0,0,1-.79,10.09h1.18c6.13-18.39,16.22-23.93,28.48-23.93,13.64,0,22.74,9.49,22.74,23.14,0,12.85-6.92,28.67-32.23,28.67C617.4,132.61,617.2,122.33,613.84,117.39Z"/>
    <path class="cls-4" d="M713.3,117.39c-14.43,5.34-19.77,37.17-19.77,62.09,0,1.58,0,3.36.39,9.1A149.48,149.48,0,0,1,675.73,190c-12.26,0-21-3.75-21-16,0-17.79,8.3-28.67,8.3-43.9,0-6.52-2.57-18.59-8.5-26.5,3.36-8.7,15.82-16.41,29.86-16.41,7.91,0,13.05,3.36,13.05,13.84a82.46,82.46,0,0,1-.79,10.09h1.19c6.13-18.39,16.21-23.93,28.47-23.93,13.65,0,22.75,9.49,22.75,23.14,0,12.85-6.93,28.67-32.24,28.67C716.86,132.61,716.66,122.33,713.3,117.39Z"/>
  </g>
  <g>
    <path class="cls-5" d="M137.59,125.93h1c1.78-42.12,4.74-83.65,23.33-83.65,11.67,0,19.38,3.95,24.92,12.85-10.09,11.47-16.22,40.94-21,72-3,19.58-7.72,36.59-9.89,41.14-3.17,6.72-12.66,10.67-38,10.67C106,139.37,99.22,114.06,93.69,98h-1c-4,42.32-10.29,80.88-28.87,80.88-14,0-20.37-6.32-26.11-16,16-16,27.29-76.73,29.86-95.32-2.17-1.38-6.33-3-13-4,4-14.23,14-21.35,32.23-21.35C109.31,42.28,120,57.7,137.59,125.93Z"/>
    <path class="cls-5" d="M258,85.39c5.14-3.36,13.25-3.76,20.17-3.76a39,39,0,0,1,6.72.4C280,103,277,128.7,277,145.7c0,8.7,2.18,16.42,7.12,22.35a39.33,39.33,0,0,1-27.69,10.87c-8.5,0-10.87-3.55-10.87-11.27a76.56,76.56,0,0,1,2.17-15.22l-1.78-.2c-8.9,22.34-19,27.49-31.64,27.49-11.86,0-33.42-6.93-33.42-40.54,0-46.67,32.63-62.3,52.6-62.3C244.57,76.88,251.49,80.05,258,85.39ZM219.26,139c0,8.9,1.38,14.83,2.37,15.82,4.75,0,10.88-5.34,16.61-19.38,3.56-8.7,5.93-19.58,8.11-32.83a19.87,19.87,0,0,0-11.27-3C226.77,99.63,219.26,120.39,219.26,139Z"/>
    <path class="cls-5" d="M386.94,93.5a32.25,32.25,0,0,1-.39,4.15h.79c5.14-12.26,17.2-20.77,28.67-20.77,12.66,0,22.55,6.53,26.31,17.21-3.17,9.29-11.08,33.81-11.08,55.17,0,4.55,2.57,12.26,7.91,14.24,0,0-9.49,16.22-27.68,16.22-14,0-19-6.53-19-19.19,0-12.06,5.54-33.61,11.08-53.79l-1.59-.59c-7.91,1.19-13.25,8.5-17,19.78-5.54,15.82-5.74,41.53-5.74,52.4a161.19,161.19,0,0,1-19.77,1.39c-12.46,0-17.21-3.76-17.21-14.84,0-12.06,7.91-37.17,13.05-58.33l-1.38-.6c-7.91.2-14.63,8.51-17.8,20.77-4.55,17.2-5.54,27.88-5.54,51.61A148.92,148.92,0,0,1,312,179.72c-15,0-19.38-8.11-19.38-17.6,0-14.64,8.3-28.28,8.3-41.73,0-5.14-2.17-18.79-8.5-27.29,5.34-11.47,18.39-16.22,30.25-16.22,7.12,0,12.86,3.37,12.86,12.07A38.81,38.81,0,0,1,333.35,101h1c9.49-20,20.77-24.13,30.26-24.13C372.31,76.88,386.94,77.28,386.94,93.5Z"/>
    <path class="cls-5" d="M492.34,179.72c-25.31,0-45.08-12.86-45.08-45.88,0-45.49,34.21-57,56.36-57,16.8,0,35.39,4.16,35.39,24.53,0,25.51-31.84,33-53,36.78.39,7.51,2.57,15.42,6.13,18.78,12.65-4.74,25.51-17.79,25.51-17.79s11.66,2.76,11.66,17.2C529.32,170.62,510.54,179.72,492.34,179.72ZM485.62,122c11.86-1.58,18.39-7.51,18.39-16.41a9.91,9.91,0,0,0-4.15-8.7C494.72,98.44,486.81,103.38,485.62,122Z"/>
    <path class="cls-5" d="M604.66,107.14c-14.43,5.34-19.77,37.18-19.77,62.09,0,1.59,0,3.37.39,9.1a149.28,149.28,0,0,1-18.19,1.39c-12.26,0-21-3.76-21-16,0-17.8,8.3-28.68,8.3-43.9,0-6.53-2.57-18.59-8.5-26.5,3.36-8.7,15.82-16.42,29.86-16.42,7.91,0,13.05,3.37,13.05,13.85a82.45,82.45,0,0,1-.79,10.08h1.19c6.13-18.39,16.22-23.93,28.48-23.93,13.64,0,22.74,9.5,22.74,23.14,0,12.86-6.92,28.68-32.24,28.68C608.22,122.37,608,112.08,604.66,107.14Z"/>
    <path class="cls-5" d="M704.13,107.14c-14.44,5.34-19.78,37.18-19.78,62.09,0,1.59,0,3.37.4,9.1a149.45,149.45,0,0,1-18.19,1.39c-12.26,0-21-3.76-21-16,0-17.8,8.31-28.68,8.31-43.9,0-6.53-2.57-18.59-8.5-26.5,3.36-8.7,15.82-16.42,29.86-16.42,7.91,0,13,3.37,13,13.85a84.49,84.49,0,0,1-.79,10.08h1.19c6.13-18.39,16.21-23.93,28.47-23.93,13.65,0,22.74,9.5,22.74,23.14,0,12.86-6.92,28.68-32.23,28.68C707.69,122.37,707.49,112.08,704.13,107.14Z"/>
  </g>
  <g>
    <path class="cls-6" d="M234.74,281.45a43.17,43.17,0,0,0,.58,6.9c.52,3.6.6,5.25.16,6.26-.72,1.58-3.26,2.67-5.44,3.27a11.79,11.79,0,0,1-8.84-.77c1.42-5.22,1.5-10.1.7-12.94-2-7-11.22-16.74-20.16-20.59,2.48-5.16,5.69-7.37,9-8.32,4.17-1.2,10.15.07,16.78,14.94l.28-.08c1.87-12.9,6.43-21.18,12.5-22.62,5.86-1.39,8.64,2.26,10.05,5.23C241.45,259.38,234.88,274.42,234.74,281.45Z"/>
    <path class="cls-6" d="M265.39,254c7.07-1.44,15.31.09,17.21,10.9,2.24,13-5.65,22.2-15.53,24.3-7.92,1.66-15.65-.55-17.84-9.67C246.1,266.56,253.62,256.34,265.39,254Zm-2.94,22.7c.68,3.21,2,5.45,5.3,5.38,2-1.79,3.14-8.15,1.82-14.85-.64-3.22-2-5.49-5.36-5.4C262.1,263.6,261,270,262.45,276.67Z"/>
    <path class="cls-6" d="M313.47,281.21c-2.89.38-4.41-.68-4.79-3.34-.12-.86-.18-2.27-.24-3.68l-.34.05c-2.16,7.32-7.41,8.79-10.5,9.28-4.3.69-8.42-.84-10.33-4.18.43-3,1.78-12.46.79-18.47-.37-2.18-1.9-4.43-3.71-4.87a11.73,11.73,0,0,1,9.34-7.1c5-.77,6.88,1.87,7.36,5.18.65,4.44-.33,11.42-1.13,19a3,3,0,0,0,1.63.16c2.46-.37,4.62-3.25,5.35-7.61,1-5.75.28-14.5-.22-18.15a47.08,47.08,0,0,1,6.19-1.28c5.2-.66,7.15,1.83,7.52,5,.58,5.12-1.86,9.58-1.28,14.3.21,1.8,1.14,6.54,4,9C321.29,278.66,317.38,280.69,313.47,281.21Z"/>
    <path class="cls-6" d="M348.68,242.65c2.22-.16,4.63.55,4.86,4.09a30.7,30.7,0,0,1-.26,3.78l.36,0c3-7.17,8.7-8.69,12-8.83,4.65-.21,8.45,1.81,9.9,5.45-1.32,3.59-3.51,13-3.3,18.4.08,2.07,1.26,4.44,2.93,5.12a11.48,11.48,0,0,1-9.72,5.88c-4.87.24-6.27-2.81-6.47-6.16-.25-4.14,1.33-11.47,2.89-18.39l-.51-.17c-2.75.14-5.88,3.41-6.92,7.84-1.25,5.45-1,13.42-.74,17.09a52.06,52.06,0,0,1-6.12.91c-4.94.39-7-1.76-7.32-5-.49-5.4,2-10.05,1.66-14.65-.15-1.74-1.22-6.22-3.82-9C339.71,244.82,344.46,242.94,348.68,242.65Z"/>
    <path class="cls-6" d="M405,243.93c1.87-1.11,4.81-1.19,7.31-1.12a14.71,14.71,0,0,1,2.42.2,97.42,97.42,0,0,0-3.4,21.47,11.46,11.46,0,0,0,2.27,7.63,13.94,13.94,0,0,1-9.6,3.47c-2.92,0-3.72-1.24-3.7-3.85a25.46,25.46,0,0,1,.79-5.15l-.62-.07c-3.15,7.54-6.58,9.27-10.92,9.31-4.06,0-11.49-2.14-11.84-13.51-.52-15.81,11.19-21.37,18.46-21.33A13.07,13.07,0,0,1,405,243.93ZM391.17,262c0,3,.52,5,.86,5.35,1.65,0,3.77-1.82,5.8-6.57a52.62,52.62,0,0,0,2.94-11.09,7.28,7.28,0,0,0-4-1C393.76,248.67,391.12,255.72,391.17,262Z"/>
    <path class="cls-6" d="M451.21,249a9.86,9.86,0,0,1-.26,1.39l.28,0a11.76,11.76,0,0,1,10.95-6c4.57.47,7.89,3.08,8.81,6.82-1.51,3-5.23,10.93-6,18.12-.17,1.53.43,4.22,2.19,5.1,0,0-3.88,5.06-10.07,4.43-4.8-.47-6.29-2.8-5.92-7.08.36-4.06,2.93-11.16,5.55-17.77l-.54-.25c-2.85.13-5,2.44-6.61,6.13-2.4,5.17-3.16,13.84-3.46,17.51a62.37,62.37,0,0,1-6.81-.05c-4.26-.3-5.81-1.65-5.58-5.4.24-4.08,3.52-12.39,5.85-19.41l-.48-.23c-2.82-.13-5.39,2.54-6.74,6.62-1.94,5.72-2.47,9.31-2.91,17.33a55.53,55.53,0,0,1-6.39.15c-5.14-.22-6.55-3-6.44-6.21.16-4.95,3.23-9.46,3.41-14,.07-1.74-.52-6.39-2.69-9.34,2-3.82,6.83-5.25,11.13-5,2.57.13,4.58,1.39,4.41,4.33a12.42,12.42,0,0,1-1,4l.35,0c3.78-6.56,8-7.69,11.4-7.44C446.41,243,451.69,243.53,451.21,249Z"/>
    <path class="cls-6" d="M484.67,282.22c-8.58-1.24-14.81-6.34-13.51-17.45,1.75-15.31,14.57-17.64,22.55-16.4,6,.91,12.47,3.44,11.29,10.23-1.49,8.49-13,9.14-20.52,9.4-.21,2.53.16,5.29,1.23,6.6,4.57-1,9.72-4.62,9.72-4.62a5.64,5.64,0,0,1,3.1,6.4C497.72,281.13,490.85,283.11,484.67,282.22Zm.44-19.68c4.24.06,6.83-1.57,7.29-4.55a3.26,3.26,0,0,0-1-3.13C489.46,255.11,486.41,256.37,485.11,262.54Z"/>
    <path class="cls-6" d="M538.4,262.14c-.79,3.53-3.48,7.73-5.41,12a31.63,31.63,0,0,0-2.21,6.17,7.17,7.17,0,0,0,1.57,6.31,13.91,13.91,0,0,1-10.55,2.18c-5.53-1.14-5-5.85-4.58-7.76a50,50,0,0,1,3.54-9.6c1.43-3.27,3.15-6.4,3.62-8.7a6.29,6.29,0,0,0-1.07-5.2c1-1,4.78-2.66,9.71-1.61C537.53,256.86,539,259.47,538.4,262.14ZM537.73,241c4.54,1,7.1,4.05,6.3,7.51-.86,3.71-5.26,5.11-9.43,4.21-4.45-1-7.06-4.08-6.45-7.1C528.94,241.64,533.19,240,537.73,241Z"/>
    <path class="cls-6" d="M545.12,267.27a30.36,30.36,0,0,0-4.7-.82c.74-3.2,1.93-7.46,5.16-6.71.77.18,1.87.51,2.71.71.39-1.62,1.12-5.58.24-7.23a22.73,22.73,0,0,1,10.6-.37c3.26.83,3.6,3,3,5.34a37.58,37.58,0,0,1-2,5.27,22.78,22.78,0,0,0,5.34.65,10.65,10.65,0,0,1-.12,4.89c-.92,3.36-5.07,2.38-8.31,1.55-3.41,6.66-6.25,11.39-6.77,13.47-.31,1.23-.14,2,.2,2.33a8.37,8.37,0,0,0,5.69-2.34c1.91,2.09,2.14,3.89,1.71,5.51-1.26,4.65-7.57,5.53-12.67,4.27-7-1.71-8.73-5-7.63-9.74C538.29,280.72,541,276.4,545.12,267.27Z"/>
    <path class="cls-6" d="M570.17,288.91c3.76,1.08,5.69,3.89,4.86,6.65-1.08,3.59-5,5.21-9.53,3.92-3.55-1-5.63-3.79-4.86-6.63C561.59,289.36,565.67,287.62,570.17,288.91Zm3.5-23c1.16-4.12,1.71-7.93,1.1-9.84a26.73,26.73,0,0,1,10.72.72c4.17,1.24,5,3.6,3.56,8.27A88.83,88.83,0,0,1,581.51,282c-2.11,3.56-4.29,5-8.47,3.78-1.08-.32-4.84-1.67-6.62-3.41A59.28,59.28,0,0,0,573.67,266Z"/>
  </g>
</svg>
